M48
;Layer_Color=9474304
;FILE_FORMAT=2:4
INCH,LZ
;TYPE=PLATED
T01F00S00C0.0079
T02F00S00C0.0276
T03F00S00C0.0354
T04F00S00C0.0433
T05F00S00C0.0453
T06F00S00C0.0787
%
T01
X-00301Y-005551
X-0027Y-00472
X-00134Y-0039
X-00045Y-003164
X-00042Y-002736
X-000423Y-001133
X-001073Y-001083
X-001693Y-000167
X00053Y-00024
X0017Y-001133
X0022Y-001223
X00288Y-0012
X00253Y-000604
X00328Y-00202
X00268Y-00309
X00086Y-0031
X00115Y-00208
X00148Y-00229
X00189Y-00469
X0009Y-00485
X-00055Y-005931
X-000766Y-006086
X-00204Y-00215
X-0016Y00156
X-00158Y00222
X-001953Y00336
X-00047Y002847
X-000222Y002618
X000124Y002316
X000166Y003066
X-000074Y00161
X-000538Y001341
X001126Y001469
X00273Y00281
X-003986Y002441
X-00361Y00145
X-00229Y00513
T02
X002776Y-0044
Y-002478
T03
X-004193Y-003976
Y-002992
X005322Y-002611
Y-001626
Y-000642
Y000342
Y001326
Y002311
T04
X000073Y003665
Y004665
X001073
Y003665
X002073
Y004665
T05
X-000945Y003665
Y004665
X00312Y004665
Y003665
T06
X0Y-006378
Y006378
M30
