G04*
G04 #@! TF.GenerationSoftware,Altium Limited,Altium Designer,24.2.2 (26)*
G04*
G04 Layer_Physical_Order=2*
G04 Layer_Color=36540*
%FSLAX25Y25*%
%MOIN*%
G70*
G04*
G04 #@! TF.SameCoordinates,6727E026-D54A-49E6-9AE1-AA62B6963756*
G04*
G04*
G04 #@! TF.FilePolarity,Positive*
G04*
G01*
G75*
%ADD33C,0.05512*%
%ADD34R,0.05512X0.05512*%
%ADD41C,0.01500*%
%ADD43C,0.04724*%
%ADD44R,0.04724X0.04724*%
%ADD45C,0.06496*%
%ADD46R,0.06496X0.06496*%
%ADD47C,0.08574*%
%ADD48R,0.06791X0.06791*%
%ADD49C,0.06791*%
%ADD50C,0.01772*%
%ADD51C,0.03000*%
G36*
X14742Y-9342D02*
X14844Y-9241D01*
X18708D01*
Y-13485D01*
X18843Y-13621D01*
X27175D01*
X27259Y-9449D01*
X30697Y-9286D01*
Y-17301D01*
X30765Y-17369D01*
X30652Y-17482D01*
X16676D01*
Y-13237D01*
X16608Y-13169D01*
X16586Y-13192D01*
X14757D01*
X14742Y-9342D01*
D02*
G37*
D33*
X-41929Y-39764D02*
D03*
X53217Y-26106D02*
D03*
Y-16264D02*
D03*
Y-6421D02*
D03*
Y3421D02*
D03*
Y13264D02*
D03*
D34*
X-41929Y-29921D02*
D03*
X53217Y23106D02*
D03*
D41*
X24200Y-38300D02*
X52608Y-9892D01*
X24200Y-50813D02*
Y-38300D01*
X52608Y-7030D02*
X53217Y-6421D01*
X52608Y-9892D02*
Y-7030D01*
X-20400Y13500D02*
X-18352Y15548D01*
X-16052D01*
X-16000Y15600D01*
X-7956Y28706D02*
X-5428Y26177D01*
X-2223D01*
X-14729Y28706D02*
X-7956D01*
X19500Y-55513D02*
X24200Y-50813D01*
X-30100Y-55513D02*
X19500D01*
X-19530Y33600D02*
X-19478Y33548D01*
X-15516Y26806D02*
X-11051D01*
X-19478Y30768D02*
X-15516Y26806D01*
X-19478Y30768D02*
Y33548D01*
X-11051Y26806D02*
X-3295Y19049D01*
X-20400Y-21500D02*
Y13500D01*
X-3295Y18655D02*
X-744Y16104D01*
X-3295Y18655D02*
Y19049D01*
X-17394Y31371D02*
Y36179D01*
Y31371D02*
X-14729Y28706D01*
X-22900Y41685D02*
X-17394Y36179D01*
X-22900Y41685D02*
Y51300D01*
D43*
X27756Y-24783D02*
D03*
D44*
Y-43996D02*
D03*
D45*
X728Y46654D02*
D03*
Y36654D02*
D03*
X10728Y46654D02*
D03*
Y36654D02*
D03*
X20728Y46654D02*
D03*
D46*
Y36654D02*
D03*
D47*
X0Y-63780D02*
D03*
Y63780D02*
D03*
D48*
X-9449Y36651D02*
D03*
X31201Y36652D02*
D03*
D49*
X-9449Y46651D02*
D03*
X31201Y46652D02*
D03*
D50*
X18900Y-46900D02*
D03*
X26800Y-30900D02*
D03*
X-4500Y-31636D02*
D03*
X-4200Y-27364D02*
D03*
X-15800Y22200D02*
D03*
X-10728Y-10827D02*
D03*
X-16000Y15600D02*
D03*
X28800Y-12000D02*
D03*
X22000Y-12235D02*
D03*
X11264Y14686D02*
D03*
X1659Y30659D02*
D03*
X-2223Y26177D02*
D03*
X1238Y23162D02*
D03*
X-4700Y28470D02*
D03*
X-13400Y-39000D02*
D03*
X-4232Y-11327D02*
D03*
X5300Y-2400D02*
D03*
X-36100Y14500D02*
D03*
X-19530Y33600D02*
D03*
X-744Y16104D02*
D03*
X14800Y-22900D02*
D03*
X25305Y-6040D02*
D03*
X-5375Y13411D02*
D03*
X11500Y-20800D02*
D03*
X32800Y-20200D02*
D03*
X-20400Y-21500D02*
D03*
X-22900Y51300D02*
D03*
X-7656Y-60857D02*
D03*
X-5500Y-59313D02*
D03*
X-30100Y-55513D02*
D03*
X-27000Y-47200D02*
D03*
X17000Y-11327D02*
D03*
X8600Y-31000D02*
D03*
X9000Y-48500D02*
D03*
X-16929Y-1673D02*
D03*
X27300Y28100D02*
D03*
X-39862Y24409D02*
D03*
D51*
X-11000Y-25136D02*
X-4500Y-31636D01*
X-11000Y-11098D02*
X-10728Y-10827D01*
X-11000Y-25136D02*
Y-11098D01*
X26297Y-12000D02*
X28800D01*
X21905Y-7608D02*
X26297Y-12000D01*
X32800Y-20200D02*
Y-8702D01*
X30138Y-6040D02*
X32800Y-8702D01*
X2200Y13557D02*
X3957Y11800D01*
X18043D02*
X19800Y10043D01*
X3957Y11800D02*
X18043D01*
X19800Y-4975D02*
Y10043D01*
X2200Y13557D02*
Y18195D01*
X1800Y23000D02*
Y26436D01*
X1238Y19157D02*
X2200Y18195D01*
X-920Y29156D02*
X-920D01*
X-13632Y31356D02*
X-3119D01*
X-920Y29156D01*
X-920D02*
X1800Y26436D01*
X1238Y19157D02*
Y23162D01*
X-18724Y-36114D02*
X-595D01*
X-24917Y-29921D02*
X-18724Y-36114D01*
X-595D02*
X7405Y-28114D01*
X19800Y-4975D02*
X20124Y-5299D01*
X-13632Y41947D02*
X-13102D01*
X-11344Y43704D01*
Y43730D01*
X-9449Y45625D01*
Y46651D01*
X-14744Y32469D02*
X-13632Y31356D01*
X-14744Y32469D02*
Y40834D01*
X-13632Y41947D01*
X17000Y-11400D02*
Y-8423D01*
X9000Y-48500D02*
X18190Y-39310D01*
Y-23710D02*
X18300Y-23600D01*
X17000Y-11400D02*
X18300Y-12700D01*
X18190Y-39310D02*
Y-23710D01*
X18300Y-23600D02*
Y-12700D01*
X9586Y-28114D02*
X14800Y-22900D01*
X7405Y-28114D02*
X9586D01*
X25305Y-6040D02*
X30138D01*
X21905Y-7608D02*
Y-7080D01*
X20124Y-5299D02*
X21905Y-7080D01*
X17000Y-8423D02*
X20124Y-5299D01*
X-41929Y-29921D02*
X-24917D01*
X8926Y-48500D02*
X9000D01*
X-27000Y-47200D02*
X7626D01*
X8926Y-48500D01*
X-9449Y46651D02*
X-3113Y52987D01*
X14395D01*
X20728Y46654D01*
X25902Y46652D02*
X31201D01*
X25900Y46654D02*
X25902Y46652D01*
X20728Y46654D02*
X25900D01*
M02*
