G04*
G04 #@! TF.GenerationSoftware,Altium Limited,Altium Designer,24.2.2 (26)*
G04*
G04 Layer_Color=128*
%FSLAX25Y25*%
%MOIN*%
G70*
G04*
G04 #@! TF.SameCoordinates,6727E026-D54A-49E6-9AE1-AA62B6963756*
G04*
G04*
G04 #@! TF.FilePolarity,Positive*
G04*
G01*
G75*
%ADD14R,0.05756X0.04953*%
%ADD15R,0.06299X0.05512*%
%ADD19R,0.02756X0.05118*%
%ADD20R,0.05906X0.04055*%
%ADD52O,0.05315X0.02165*%
%ADD53O,0.02165X0.05315*%
%ADD54R,0.02598X0.03937*%
%ADD55R,0.04953X0.05756*%
%ADD56R,0.04921X0.06102*%
%ADD57R,0.03543X0.05512*%
%ADD58R,0.08268X0.05512*%
%ADD59R,0.04969X0.03378*%
%ADD60R,0.04055X0.05906*%
D14*
X-20400Y39054D02*
D03*
Y46746D02*
D03*
D15*
X-29200Y51006D02*
D03*
Y39194D02*
D03*
X-37700Y50906D02*
D03*
Y39095D02*
D03*
D19*
X22638Y15551D02*
D03*
X30118D02*
D03*
D20*
X15551Y-5059D02*
D03*
Y1319D02*
D03*
X-25984Y-42756D02*
D03*
Y-36378D02*
D03*
D52*
X13913Y-28138D02*
D03*
Y-31287D02*
D03*
Y-34437D02*
D03*
Y-37587D02*
D03*
Y-40736D02*
D03*
Y-43886D02*
D03*
Y-47035D02*
D03*
Y-50185D02*
D03*
X-18764D02*
D03*
Y-47035D02*
D03*
Y-43886D02*
D03*
Y-40736D02*
D03*
Y-37587D02*
D03*
Y-34437D02*
D03*
Y-31287D02*
D03*
Y-28138D02*
D03*
D53*
X8598Y-55500D02*
D03*
X5449D02*
D03*
X2299D02*
D03*
X-850D02*
D03*
X-4000D02*
D03*
X-7150D02*
D03*
X-10299D02*
D03*
X-13449D02*
D03*
Y-22823D02*
D03*
X-10299D02*
D03*
X-7150D02*
D03*
X-4000D02*
D03*
X-850D02*
D03*
X2299D02*
D03*
X5449D02*
D03*
X8598D02*
D03*
D54*
X29740Y-477D02*
D03*
X26000D02*
D03*
X22260D02*
D03*
Y9877D02*
D03*
X29740D02*
D03*
D55*
X15165Y23130D02*
D03*
X7472D02*
D03*
D56*
X-11024Y-15650D02*
D03*
X-2953D02*
D03*
D57*
X-3937Y19193D02*
D03*
X-11024D02*
D03*
X7382Y15650D02*
D03*
X14469D02*
D03*
D58*
X-58169Y-14370D02*
D03*
X-18799D02*
D03*
X-58169Y3346D02*
D03*
X-18799D02*
D03*
X-58169Y10532D02*
D03*
X-18799D02*
D03*
X-58169Y28248D02*
D03*
X-18799D02*
D03*
D59*
X-26100Y-50741D02*
D03*
Y-56859D02*
D03*
D60*
X23189Y23031D02*
D03*
X29567D02*
D03*
X3602Y-15748D02*
D03*
X9980D02*
D03*
M02*
