G04*
G04 #@! TF.GenerationSoftware,Altium Limited,Altium Designer,24.2.2 (26)*
G04*
G04 Layer_Color=8421504*
%FSLAX25Y25*%
%MOIN*%
G70*
G04*
G04 #@! TF.SameCoordinates,6727E026-D54A-49E6-9AE1-AA62B6963756*
G04*
G04*
G04 #@! TF.FilePolarity,Positive*
G04*
G01*
G75*
%ADD12R,0.06004X0.02559*%
%ADD13R,0.04724X0.03543*%
%ADD14R,0.05756X0.04953*%
%ADD15R,0.06299X0.05512*%
%ADD16R,0.05807X0.01772*%
%ADD17R,0.06127X0.05924*%
%ADD18R,0.03543X0.04724*%
%ADD19R,0.02756X0.05118*%
%ADD20R,0.05906X0.04055*%
%ADD21R,0.04724X0.02559*%
%ADD22R,0.13394X0.09894*%
%ADD23R,0.02756X0.06004*%
D12*
X-10677Y7500D02*
D03*
Y2500D02*
D03*
Y-2500D02*
D03*
Y-7500D02*
D03*
X10677D02*
D03*
Y-2500D02*
D03*
Y2500D02*
D03*
Y7500D02*
D03*
D13*
X29500Y-3134D02*
D03*
Y5134D02*
D03*
X19500Y-3134D02*
D03*
Y5134D02*
D03*
D14*
X7000Y24846D02*
D03*
Y17154D02*
D03*
D15*
X20500Y27906D02*
D03*
Y16094D02*
D03*
D16*
X1067Y-33339D02*
D03*
Y-30780D02*
D03*
Y-28220D02*
D03*
Y-25661D02*
D03*
X-22067D02*
D03*
Y-28220D02*
D03*
Y-30780D02*
D03*
Y-33339D02*
D03*
D17*
X33500Y-31034D02*
D03*
Y-38166D02*
D03*
X20200Y-33934D02*
D03*
Y-41066D02*
D03*
D18*
X-33528Y32500D02*
D03*
X-24472D02*
D03*
D19*
X-23622Y-3937D02*
D03*
X-31102D02*
D03*
X-23720Y-11516D02*
D03*
X-31201D02*
D03*
D20*
X-18000Y-39122D02*
D03*
Y-45500D02*
D03*
X-7000Y24189D02*
D03*
Y17811D02*
D03*
X10532Y-42067D02*
D03*
Y-35689D02*
D03*
D21*
X-9421Y-46440D02*
D03*
Y-42700D02*
D03*
Y-38960D02*
D03*
X421D02*
D03*
Y-42700D02*
D03*
Y-46440D02*
D03*
D22*
X-27500Y13823D02*
D03*
D23*
X-20000Y3146D02*
D03*
X-25000D02*
D03*
X-30000D02*
D03*
X-35000D02*
D03*
Y24500D02*
D03*
X-30000D02*
D03*
X-25000D02*
D03*
X-20000D02*
D03*
M02*
