G04*
G04 #@! TF.GenerationSoftware,Altium Limited,Altium Designer,24.2.2 (26)*
G04*
G04 Layer_Color=32768*
%FSLAX25Y25*%
%MOIN*%
G70*
G04*
G04 #@! TF.SameCoordinates,6727E026-D54A-49E6-9AE1-AA62B6963756*
G04*
G04*
G04 #@! TF.FilePolarity,Positive*
G04*
G01*
G75*
%ADD11C,0.00787*%
%ADD71C,0.00197*%
D11*
X26449Y7299D02*
X32551D01*
X26449Y-5299D02*
Y7299D01*
Y-5299D02*
X32551D01*
Y7299D01*
X2153Y12708D02*
X11847D01*
Y29292D01*
X2153D02*
X11847D01*
X2153Y12708D02*
Y29292D01*
X16449Y7299D02*
X22551D01*
X16449Y-5299D02*
Y7299D01*
Y-5299D02*
X22551D01*
Y7299D01*
X28468Y-43096D02*
X38532D01*
Y-26103D01*
X28468D02*
X38532D01*
X28468Y-43096D02*
Y-26103D01*
X15168Y-45996D02*
X25232D01*
Y-29004D01*
X15168D02*
X25232D01*
X15168Y-45996D02*
Y-29004D01*
X-22307Y29350D02*
Y35650D01*
X-35693D02*
X-22307D01*
X-35693Y29350D02*
Y35650D01*
Y29350D02*
X-22307D01*
X-32874Y-7185D02*
Y-689D01*
Y-7185D02*
X-21850D01*
Y-689D01*
X-32874D02*
X-21850D01*
X-32972Y-14764D02*
Y-8268D01*
Y-14764D02*
X-21949D01*
Y-8268D01*
X-32972D02*
X-21949D01*
D71*
X20500Y20032D02*
Y23969D01*
X18532Y22000D02*
X22469D01*
X16366Y12551D02*
Y31449D01*
X24634D01*
Y12551D02*
Y31449D01*
X16366Y12551D02*
X24634D01*
M02*
