G04*
G04 #@! TF.GenerationSoftware,Altium Limited,Altium Designer,24.2.2 (26)*
G04*
G04 Layer_Color=16711935*
%FSLAX25Y25*%
%MOIN*%
G70*
G04*
G04 #@! TF.SameCoordinates,6727E026-D54A-49E6-9AE1-AA62B6963756*
G04*
G04*
G04 #@! TF.FilePolarity,Positive*
G04*
G01*
G75*
%ADD11C,0.00787*%
%ADD71C,0.00197*%
D11*
X-15553Y34608D02*
Y51192D01*
X-25247D02*
X-15553D01*
X-25247Y34608D02*
Y51192D01*
Y34608D02*
X-15553D01*
X32299Y-2839D02*
Y12239D01*
X19701D02*
X32299D01*
X19701Y-2839D02*
Y12239D01*
Y-2839D02*
X32299D01*
X3027Y27977D02*
X19611D01*
X3027Y18283D02*
Y27977D01*
Y18283D02*
X19611D01*
Y27977D01*
X-48622Y-19685D02*
X-32874D01*
Y-50000D02*
Y-19685D01*
X-48622Y-50000D02*
X-32874D01*
X-48622D02*
Y-19685D01*
X37469Y-36146D02*
X83532D01*
X37469D02*
Y33146D01*
X83532D01*
Y-36146D02*
Y33146D01*
X-13189Y16043D02*
Y22343D01*
X-1772D01*
Y16043D02*
Y22343D01*
X-13189Y16043D02*
X-1772D01*
X16634Y12500D02*
Y18799D01*
X5217Y12500D02*
X16634D01*
X5217D02*
Y18799D01*
X16634D01*
X-29151Y-58942D02*
X-23049D01*
X-29151D02*
Y-48658D01*
X-23049D01*
Y-58942D02*
Y-48658D01*
X31890Y12303D02*
Y18799D01*
X20866Y12303D02*
X31890D01*
X20866D02*
Y18799D01*
X31890D01*
D71*
X-33334Y54549D02*
X-25066D01*
Y35651D02*
Y54549D01*
X-33334Y35651D02*
X-25066D01*
X-33334D02*
Y54549D01*
X-31169Y45100D02*
X-27232D01*
X-29200Y43132D02*
Y47069D01*
X-41834Y54449D02*
X-33566D01*
Y35551D02*
Y54449D01*
X-41834Y35551D02*
X-33566D01*
X-41834D02*
Y54449D01*
X-39669Y45000D02*
X-35732D01*
X-37700Y43032D02*
Y46969D01*
M02*
