G04*
G04 #@! TF.GenerationSoftware,Altium Limited,Altium Designer,24.2.2 (26)*
G04*
G04 Layer_Color=32768*
%FSLAX25Y25*%
%MOIN*%
G70*
G04*
G04 #@! TF.SameCoordinates,6727E026-D54A-49E6-9AE1-AA62B6963756*
G04*
G04*
G04 #@! TF.FilePolarity,Positive*
G04*
G01*
G75*
%ADD69C,0.00394*%
%ADD71C,0.00197*%
D69*
X25788Y-34390D02*
X29725D01*
X27756Y-36358D02*
Y-32421D01*
X-4394Y-39161D02*
X-457D01*
X-2425Y-41130D02*
Y-37193D01*
X-8957Y-15650D02*
X-5020D01*
X-6988Y-17618D02*
Y-13681D01*
X-68799Y-21260D02*
X-10728D01*
Y10236D01*
X-68799D02*
X-10728D01*
X-68799Y-21260D02*
Y10236D01*
Y3642D02*
X-10728D01*
Y35138D01*
X-68799D02*
X-10728D01*
X-68799Y3642D02*
Y35138D01*
D71*
X21460Y-11654D02*
G03*
X18209Y-15222I197J-3445D01*
G01*
X37303Y-15295D02*
G03*
X34055Y-11654I-3445J197D01*
G01*
Y-57052D02*
G03*
X37303Y-53411I-197J3445D01*
G01*
X18209Y-53484D02*
G03*
X21460Y-57052I3448J-123D01*
G01*
X37303Y-53484D02*
Y-15295D01*
X18209Y-53484D02*
Y-15295D01*
X21460Y-11653D02*
X34055D01*
X21460Y-57052D02*
X34055D01*
X16866Y-58453D02*
Y-19870D01*
X-21717Y-58453D02*
Y-19870D01*
X16866D01*
X-21717Y-58453D02*
X16866D01*
X-14665Y10827D02*
X14665D01*
Y-10827D02*
Y10827D01*
X-14665Y-10827D02*
X14665D01*
X-14665D02*
Y10827D01*
X-5650Y30669D02*
X27106D01*
X-5650D02*
Y52638D01*
X27106D01*
Y30669D02*
Y52638D01*
X-15453Y-20768D02*
Y-10532D01*
X1476Y-20768D02*
Y-10532D01*
X-15453Y-20768D02*
X1476D01*
X-15453Y-10532D02*
X1476D01*
X-25953Y-36449D02*
X4953D01*
X-25953D02*
Y-22551D01*
X4953D01*
Y-36449D02*
Y-22551D01*
X-14457Y-48118D02*
Y-36504D01*
X-21543Y-48118D02*
X-14457D01*
X-21543D02*
Y-36504D01*
X-14457D01*
X20571Y19488D02*
X32185D01*
Y26575D01*
X20571D02*
X32185D01*
X20571Y19488D02*
Y26575D01*
X19095Y-7677D02*
Y3937D01*
X12008D02*
X19095D01*
X12008Y-7677D02*
Y3937D01*
Y-7677D02*
X19095D01*
X-3457Y15193D02*
Y26807D01*
X-10543Y15193D02*
X-3457D01*
X-10543D02*
Y26807D01*
X-3457D01*
X984Y-19291D02*
X12598D01*
Y-12205D01*
X984D02*
X12598D01*
X984Y-19291D02*
Y-12205D01*
X-22441Y-45374D02*
Y-33760D01*
X-29528D02*
X-22441D01*
X-29528Y-45374D02*
Y-33760D01*
Y-45374D02*
X-22441D01*
X6988Y-44685D02*
Y-33071D01*
X14075D01*
Y-44685D02*
Y-33071D01*
X6988Y-44685D02*
X14075D01*
X3768Y-49590D02*
Y-35810D01*
X-12768D02*
X3768D01*
X-12768Y-49590D02*
Y-35810D01*
Y-49590D02*
X3768D01*
X-38524Y28488D02*
X-16476D01*
X-38524Y-843D02*
Y28488D01*
Y-843D02*
X-16476D01*
Y28488D01*
X-3417Y31218D02*
Y52088D01*
X-15484D02*
X-3417D01*
X-15484Y31218D02*
Y52088D01*
Y31218D02*
X-3417D01*
X37232Y31219D02*
Y52089D01*
X25165D02*
X37232D01*
X25165Y31219D02*
Y52089D01*
Y31219D02*
X37232D01*
M02*
