G04*
G04 #@! TF.GenerationSoftware,Altium Limited,Altium Designer,24.2.2 (26)*
G04*
G04 Layer_Color=32768*
%FSLAX25Y25*%
%MOIN*%
G70*
G04*
G04 #@! TF.SameCoordinates,6727E026-D54A-49E6-9AE1-AA62B6963756*
G04*
G04*
G04 #@! TF.FilePolarity,Positive*
G04*
G01*
G75*
%ADD11C,0.00787*%
D11*
X-17939Y38963D02*
Y46837D01*
X-22861D02*
X-17939D01*
X-22861Y38963D02*
Y46837D01*
Y38963D02*
X-17939D01*
X31906Y1354D02*
Y8046D01*
X20094D02*
X31906D01*
X20094Y1354D02*
Y8046D01*
Y1354D02*
X31906D01*
X7382Y25591D02*
X15256D01*
X7382Y20669D02*
Y25591D01*
Y20669D02*
X15256D01*
Y25591D01*
X-48228Y-20079D02*
X-33268D01*
Y-49606D02*
Y-20079D01*
X-48228Y-49606D02*
X-33268D01*
X-48228D02*
Y-20079D01*
X37862Y-35752D02*
X83138D01*
X37862D02*
Y32752D01*
X83138D01*
Y-35752D02*
Y32752D01*
X-11614Y16437D02*
Y21949D01*
X-3346D01*
Y16437D02*
Y21949D01*
X-11614Y16437D02*
X-3346D01*
X15059Y12894D02*
Y18406D01*
X6791Y12894D02*
X15059D01*
X6791D02*
Y18406D01*
X15059D01*
X-28561Y-57737D02*
X-23639D01*
X-28561D02*
Y-49863D01*
X-23639D01*
Y-57737D02*
Y-49863D01*
X30709Y12697D02*
Y18406D01*
X22047Y12697D02*
X30709D01*
X22047D02*
Y18406D01*
X30709D01*
M02*
