G04*
G04 #@! TF.GenerationSoftware,Altium Limited,Altium Designer,24.2.2 (26)*
G04*
G04 Layer_Physical_Order=3*
G04 Layer_Color=16440176*
%FSLAX25Y25*%
%MOIN*%
G70*
G04*
G04 #@! TF.SameCoordinates,6727E026-D54A-49E6-9AE1-AA62B6963756*
G04*
G04*
G04 #@! TF.FilePolarity,Positive*
G04*
G01*
G75*
%ADD33C,0.05512*%
%ADD34R,0.05512X0.05512*%
%ADD41C,0.01500*%
%ADD43C,0.04724*%
%ADD44R,0.04724X0.04724*%
%ADD45C,0.06496*%
%ADD46R,0.06496X0.06496*%
%ADD47C,0.08574*%
%ADD48R,0.06791X0.06791*%
%ADD49C,0.06791*%
%ADD50C,0.01772*%
%ADD51C,0.03000*%
D33*
X-41929Y-39764D02*
D03*
X53217Y-26106D02*
D03*
Y-16264D02*
D03*
Y-6421D02*
D03*
Y3421D02*
D03*
Y13264D02*
D03*
D34*
X-41929Y-29921D02*
D03*
X53217Y23106D02*
D03*
D41*
X39059Y-36764D02*
X49311Y-26513D01*
Y-24488D02*
X51599Y-22200D01*
X17048Y-36764D02*
X39059D01*
X49311Y-26513D02*
Y-24488D01*
X53217Y-21322D02*
Y-16264D01*
X51599Y-22200D02*
X52338D01*
X53217Y-21322D01*
X-5500Y-59313D02*
X17048Y-36764D01*
X-6021Y-29500D02*
X-3315D01*
X-4200Y-27364D02*
X11052Y-12113D01*
X-7656Y-31135D02*
X-6021Y-29500D01*
X-3315D02*
X7867Y-18317D01*
X11384Y-14468D02*
X14433D01*
X15328Y-15363D01*
X17885Y-13463D02*
X19060Y-12287D01*
X21948D02*
X22000Y-12235D01*
X7867Y-17984D02*
X11384Y-14468D01*
X19060Y-12287D02*
X21948D01*
X15328Y-15363D02*
X34433D01*
X53217Y3421D01*
X16115Y-13463D02*
X17885D01*
X7464Y14686D02*
X11264D01*
X7378Y14600D02*
X7464Y14686D01*
X5249Y14600D02*
X7378D01*
X-5375Y13411D02*
X4061D01*
X5249Y14600D01*
X7867Y-18317D02*
Y-17984D01*
X-7656Y-60857D02*
Y-31135D01*
X11052Y-12113D02*
X14765D01*
X16115Y-13463D01*
D43*
X27756Y-24783D02*
D03*
D44*
Y-43996D02*
D03*
D45*
X728Y46654D02*
D03*
Y36654D02*
D03*
X10728Y46654D02*
D03*
Y36654D02*
D03*
X20728Y46654D02*
D03*
D46*
Y36654D02*
D03*
D47*
X0Y-63780D02*
D03*
Y63780D02*
D03*
D48*
X-9449Y36651D02*
D03*
X31201Y36652D02*
D03*
D49*
X-9449Y46651D02*
D03*
X31201Y46652D02*
D03*
D50*
X18900Y-46900D02*
D03*
X26800Y-30900D02*
D03*
X-4500Y-31636D02*
D03*
X-4200Y-27364D02*
D03*
X-15800Y22200D02*
D03*
X-10728Y-10827D02*
D03*
X-16000Y15600D02*
D03*
X28800Y-12000D02*
D03*
X22000Y-12235D02*
D03*
X11264Y14686D02*
D03*
X1659Y30659D02*
D03*
X-2223Y26177D02*
D03*
X1238Y23162D02*
D03*
X-4700Y28470D02*
D03*
X-13400Y-39000D02*
D03*
X-4232Y-11327D02*
D03*
X5300Y-2400D02*
D03*
X-36100Y14500D02*
D03*
X-19530Y33600D02*
D03*
X-744Y16104D02*
D03*
X14800Y-22900D02*
D03*
X25305Y-6040D02*
D03*
X-5375Y13411D02*
D03*
X11500Y-20800D02*
D03*
X32800Y-20200D02*
D03*
X-20400Y-21500D02*
D03*
X-22900Y51300D02*
D03*
X-7656Y-60857D02*
D03*
X-5500Y-59313D02*
D03*
X-30100Y-55513D02*
D03*
X-27000Y-47200D02*
D03*
X17000Y-11327D02*
D03*
X8600Y-31000D02*
D03*
X9000Y-48500D02*
D03*
X-16929Y-1673D02*
D03*
X27300Y28100D02*
D03*
X-39862Y24409D02*
D03*
D51*
X-15800Y22200D02*
X-15075Y22926D01*
Y43678D01*
X-14829Y43923D01*
Y52943D01*
X-3878Y18990D02*
X1148D01*
X-10556Y12312D02*
X-3878Y18990D01*
X-10556Y4700D02*
Y12312D01*
X7194Y25036D02*
X50203D01*
X1148Y18990D02*
X7194Y25036D01*
X-29272Y-1673D02*
X-16929D01*
X-39862Y8917D02*
Y24409D01*
Y8917D02*
X-29272Y-1673D01*
X-13072Y54700D02*
X-7318D01*
X-14829Y52943D02*
X-13072Y54700D01*
X-7318D02*
X728Y46654D01*
X-16929Y-1673D02*
X-10556Y4700D01*
X14800Y-22900D02*
X17500Y-20200D01*
X50203Y25036D02*
X50877Y24362D01*
X51961D02*
X53217Y23106D01*
X50877Y24362D02*
X51961D01*
X17500Y-20200D02*
X32800D01*
X8600Y-23700D02*
X11500Y-20800D01*
X8600Y-31000D02*
Y-23700D01*
M02*
