G04*
G04 #@! TF.GenerationSoftware,Altium Limited,Altium Designer,24.2.2 (26)*
G04*
G04 Layer_Color=8388736*
%FSLAX25Y25*%
%MOIN*%
G70*
G04*
G04 #@! TF.SameCoordinates,6727E026-D54A-49E6-9AE1-AA62B6963756*
G04*
G04*
G04 #@! TF.FilePolarity,Negative*
G04*
G01*
G75*
%ADD13R,0.04724X0.03543*%
%ADD14R,0.05756X0.04953*%
%ADD17R,0.06127X0.05924*%
%ADD18R,0.03543X0.04724*%
%ADD19R,0.02756X0.05118*%
%ADD24R,0.06594X0.03150*%
%ADD25R,0.06890X0.06102*%
%ADD26R,0.06398X0.02362*%
%ADD27R,0.06496X0.04646*%
%ADD28R,0.05315X0.03150*%
%ADD29R,0.13984X0.10484*%
%ADD30R,0.03347X0.06594*%
%ADD31C,0.05315*%
%ADD32R,0.05315X0.05315*%
%ADD33C,0.05512*%
%ADD34R,0.05512X0.05512*%
%ADD35C,0.07087*%
%ADD36R,0.07087X0.07087*%
%ADD37C,0.09165*%
%ADD38R,0.07382X0.07382*%
%ADD39C,0.07382*%
%ADD40C,0.02362*%
D13*
X29500Y-3134D02*
D03*
Y5134D02*
D03*
X19500Y-3134D02*
D03*
Y5134D02*
D03*
D14*
X7000Y24846D02*
D03*
Y17154D02*
D03*
D17*
X33500Y-31034D02*
D03*
Y-38166D02*
D03*
X20200Y-33934D02*
D03*
Y-41066D02*
D03*
D18*
X-33528Y32500D02*
D03*
X-24472D02*
D03*
D19*
X-23622Y-3937D02*
D03*
X-31102D02*
D03*
X-23720Y-11516D02*
D03*
X-31201D02*
D03*
D24*
X-10677Y7500D02*
D03*
Y2500D02*
D03*
Y-2500D02*
D03*
Y-7500D02*
D03*
X10677D02*
D03*
Y-2500D02*
D03*
Y2500D02*
D03*
Y7500D02*
D03*
D25*
X20500Y27906D02*
D03*
Y16094D02*
D03*
D26*
X1067Y-33339D02*
D03*
Y-30780D02*
D03*
Y-28220D02*
D03*
Y-25661D02*
D03*
X-22067D02*
D03*
Y-28220D02*
D03*
Y-30780D02*
D03*
Y-33339D02*
D03*
D27*
X-18000Y-39122D02*
D03*
Y-45500D02*
D03*
X-7000Y24189D02*
D03*
Y17811D02*
D03*
X10532Y-42067D02*
D03*
Y-35689D02*
D03*
D28*
X-9421Y-46440D02*
D03*
Y-42700D02*
D03*
Y-38960D02*
D03*
X421D02*
D03*
Y-42700D02*
D03*
Y-46440D02*
D03*
D29*
X-27500Y13823D02*
D03*
D30*
X-20000Y3146D02*
D03*
X-25000D02*
D03*
X-30000D02*
D03*
X-35000D02*
D03*
Y24500D02*
D03*
X-30000D02*
D03*
X-25000D02*
D03*
X-20000D02*
D03*
D31*
X27756Y-24783D02*
D03*
D32*
Y-43996D02*
D03*
D33*
X-41929Y-39764D02*
D03*
X53217Y-26106D02*
D03*
Y-16264D02*
D03*
Y-6421D02*
D03*
Y3421D02*
D03*
Y13264D02*
D03*
D34*
X-41929Y-29921D02*
D03*
X53217Y23106D02*
D03*
D35*
X728Y46654D02*
D03*
Y36654D02*
D03*
X10728Y46654D02*
D03*
Y36654D02*
D03*
X20728Y46654D02*
D03*
D36*
Y36654D02*
D03*
D37*
X0Y-63780D02*
D03*
Y63780D02*
D03*
D38*
X-9449Y36651D02*
D03*
X31201Y36652D02*
D03*
D39*
X-9449Y46651D02*
D03*
X31201Y46652D02*
D03*
D40*
X18900Y-46900D02*
D03*
X26800Y-30900D02*
D03*
X-4500Y-31636D02*
D03*
X-4200Y-27364D02*
D03*
X-15800Y22200D02*
D03*
X-10728Y-10827D02*
D03*
X-16000Y15600D02*
D03*
X28800Y-12000D02*
D03*
X22000Y-12235D02*
D03*
X11264Y14686D02*
D03*
X1659Y30659D02*
D03*
X-2223Y26177D02*
D03*
X1238Y23162D02*
D03*
X-4700Y28470D02*
D03*
X-13400Y-39000D02*
D03*
X-4232Y-11327D02*
D03*
X5300Y-2400D02*
D03*
X-36100Y14500D02*
D03*
X-19530Y33600D02*
D03*
X-744Y16104D02*
D03*
X14800Y-22900D02*
D03*
X25305Y-6040D02*
D03*
X-5375Y13411D02*
D03*
X11500Y-20800D02*
D03*
X32800Y-20200D02*
D03*
X-20400Y-21500D02*
D03*
X-22900Y51300D02*
D03*
X-7656Y-60857D02*
D03*
X-5500Y-59313D02*
D03*
X-30100Y-55513D02*
D03*
X-27000Y-47200D02*
D03*
X17000Y-11327D02*
D03*
X8600Y-31000D02*
D03*
X9000Y-48500D02*
D03*
X-16929Y-1673D02*
D03*
X27300Y28100D02*
D03*
X-39862Y24409D02*
D03*
M02*
