G04*
G04 #@! TF.GenerationSoftware,Altium Limited,Altium Designer,24.2.2 (26)*
G04*
G04 Layer_Physical_Order=1*
G04 Layer_Color=255*
%FSLAX25Y25*%
%MOIN*%
G70*
G04*
G04 #@! TF.SameCoordinates,6727E026-D54A-49E6-9AE1-AA62B6963756*
G04*
G04*
G04 #@! TF.FilePolarity,Positive*
G04*
G01*
G75*
%ADD12R,0.06004X0.02559*%
%ADD13R,0.04724X0.03543*%
%ADD14R,0.05756X0.04953*%
%ADD15R,0.06299X0.05512*%
%ADD16R,0.05807X0.01772*%
%ADD17R,0.06127X0.05924*%
%ADD18R,0.03543X0.04724*%
%ADD19R,0.02756X0.05118*%
%ADD20R,0.05906X0.04055*%
%ADD21R,0.04724X0.02559*%
%ADD22R,0.13394X0.09894*%
%ADD23R,0.02756X0.06004*%
%ADD33C,0.05512*%
%ADD34R,0.05512X0.05512*%
%ADD41C,0.01500*%
%ADD42C,0.01000*%
%ADD43C,0.04724*%
%ADD44R,0.04724X0.04724*%
%ADD45C,0.06496*%
%ADD46R,0.06496X0.06496*%
%ADD47C,0.08574*%
%ADD48R,0.06791X0.06791*%
%ADD49C,0.06791*%
%ADD50C,0.01772*%
G36*
X-36713Y27953D02*
X-32874D01*
Y21358D01*
X-37004D01*
X-41728Y16634D01*
X-49114D01*
Y31398D01*
X-42028D01*
X-36713Y27953D01*
D02*
G37*
G36*
X22551Y2280D02*
X22157Y1886D01*
X21917Y2126D01*
X16843D01*
Y114D01*
X16728Y0D01*
X7500D01*
Y4035D01*
X7598Y3937D01*
X15551D01*
X16449Y7299D01*
X22551D01*
Y2280D01*
D02*
G37*
G36*
X-15059Y6299D02*
Y-6004D01*
X-21358D01*
X-21457Y6398D01*
X-15157D01*
X-15059Y6299D01*
D02*
G37*
G36*
X21813Y-1700D02*
X21841Y-4287D01*
X21813Y-7017D01*
X20494D01*
X18963Y-8548D01*
X18747Y-10392D01*
X18684Y-12300D01*
X16600D01*
X16100Y-11700D01*
X16036Y-6660D01*
Y-1404D01*
X21813D01*
X21841Y-1376D01*
X21813Y-1700D01*
D02*
G37*
G36*
X32235Y-1501D02*
Y-10639D01*
X29709Y-13165D01*
X29685Y-13141D01*
X26734D01*
X26663Y-1454D01*
X32282D01*
X32235Y-1501D01*
D02*
G37*
G36*
X-33500Y-886D02*
X-29232Y-886D01*
Y-16339D01*
X-29331Y-16437D01*
X-37402D01*
Y-33760D01*
X-37500Y-33858D01*
X-46752D01*
X-46555Y-13583D01*
Y6890D01*
X-33500D01*
Y-886D01*
D02*
G37*
G36*
X10700Y-33230D02*
X11270Y-33800D01*
X13400D01*
Y-37760D01*
X7200Y-37300D01*
X6900Y-28800D01*
X10700D01*
Y-33230D01*
D02*
G37*
G36*
X13484Y-50000D02*
X7218D01*
X7300Y-39600D01*
X13484D01*
Y-50000D01*
D02*
G37*
G36*
X-26468Y-26280D02*
X-25197Y-27165D01*
X-19094D01*
Y-29232D01*
X-25197D01*
X-26468Y-29921D01*
X-31201D01*
X-31004Y-30118D01*
Y-47610D01*
X-31002D01*
Y-48827D01*
X-30915Y-48913D01*
X-20968D01*
Y-46307D01*
X-14665D01*
Y-46260D01*
X-12697Y-46949D01*
X-11811Y-47146D01*
X-6791D01*
Y-50295D01*
X-11811D01*
X-14665Y-51870D01*
Y-51733D01*
X-14670Y-51737D01*
X-14713Y-51693D01*
X-31004D01*
Y-51772D01*
X-46457D01*
X-46535Y-51693D01*
X-46552D01*
X-46552Y-51676D01*
X-46555Y-51673D01*
Y-51424D01*
X-46600Y-47700D01*
X-46555Y-47655D01*
Y-35236D01*
X-36516D01*
Y-26181D01*
X-26567D01*
X-26468Y-26280D01*
D02*
G37*
D12*
X-10677Y7500D02*
D03*
Y2500D02*
D03*
Y-2500D02*
D03*
Y-7500D02*
D03*
X10677D02*
D03*
Y-2500D02*
D03*
Y2500D02*
D03*
Y7500D02*
D03*
D13*
X29500Y-3134D02*
D03*
Y5134D02*
D03*
X19500Y-3134D02*
D03*
Y5134D02*
D03*
D14*
X7000Y24846D02*
D03*
Y17154D02*
D03*
D15*
X20500Y27906D02*
D03*
Y16094D02*
D03*
D16*
X1067Y-33339D02*
D03*
Y-30780D02*
D03*
Y-28220D02*
D03*
Y-25661D02*
D03*
X-22067D02*
D03*
Y-28220D02*
D03*
Y-30780D02*
D03*
Y-33339D02*
D03*
D17*
X33500Y-31034D02*
D03*
Y-38166D02*
D03*
X20200Y-33934D02*
D03*
Y-41066D02*
D03*
D18*
X-33528Y32500D02*
D03*
X-24472D02*
D03*
D19*
X-23622Y-3937D02*
D03*
X-31102D02*
D03*
X-23720Y-11516D02*
D03*
X-31201D02*
D03*
D20*
X-18000Y-39122D02*
D03*
Y-45500D02*
D03*
X-7000Y24189D02*
D03*
Y17811D02*
D03*
X10532Y-42067D02*
D03*
Y-35689D02*
D03*
D21*
X-9421Y-46440D02*
D03*
Y-42700D02*
D03*
Y-38960D02*
D03*
X421D02*
D03*
Y-42700D02*
D03*
Y-46440D02*
D03*
D22*
X-27500Y13823D02*
D03*
D23*
X-20000Y3146D02*
D03*
X-25000D02*
D03*
X-30000D02*
D03*
X-35000D02*
D03*
Y24500D02*
D03*
X-30000D02*
D03*
X-25000D02*
D03*
X-20000D02*
D03*
D33*
X-41929Y-39764D02*
D03*
X53217Y-26106D02*
D03*
Y-16264D02*
D03*
Y-6421D02*
D03*
Y3421D02*
D03*
Y13264D02*
D03*
D34*
X-41929Y-29921D02*
D03*
X53217Y23106D02*
D03*
D41*
X25905Y-31722D02*
X26726Y-30900D01*
X26800D02*
X35014D01*
X20200Y-33934D02*
X22412Y-31722D01*
X25905D01*
X26726Y-30900D02*
X26800D01*
X18900Y-46900D02*
X20200Y-45600D01*
Y-41066D01*
X951Y-45911D02*
X3725D01*
X421Y-46440D02*
X951Y-45911D01*
X3725D02*
X5833Y-43803D01*
X39909Y-26106D02*
X53217D01*
X35141Y-30874D02*
X39909Y-26106D01*
X35040Y-30874D02*
X35141D01*
X32828Y-40218D02*
X35040Y-38006D01*
X27756Y-43996D02*
X31534Y-40218D01*
X32828D01*
X35014Y-30900D02*
X35040Y-30874D01*
X-13052Y-42171D02*
X-9951D01*
X-13313Y-41910D02*
X-13052Y-42171D01*
X-9951D02*
X-9421Y-42700D01*
X-13452Y-39052D02*
X-13400Y-39000D01*
X-18000Y-39122D02*
X-17930Y-39052D01*
X-13452D01*
X-13313Y-41910D02*
Y-39565D01*
X-3811Y-38960D02*
X421D01*
X-17109Y-25661D02*
X-3811Y-38960D01*
X-22067Y-25661D02*
X-17109D01*
X421Y-42700D02*
X1504D01*
X2815Y-41389D02*
X3260D01*
X3933Y-40716D01*
X1504Y-42700D02*
X2815Y-41389D01*
X-3706Y-30915D02*
X931D01*
X-6636Y-32520D02*
Y-13730D01*
Y-32520D02*
X-3144Y-36012D01*
X2889D01*
X3933Y-40716D02*
Y-37056D01*
X4060Y-25797D02*
X5750Y-27488D01*
X1203Y-25797D02*
X4060D01*
X1067Y-25661D02*
X1203Y-25797D01*
X5750Y-36334D02*
Y-27488D01*
Y-36334D02*
X5833Y-36417D01*
X2889Y-36012D02*
X3933Y-37056D01*
X5833Y-43803D02*
Y-36417D01*
X-19372Y22248D02*
X-15848D01*
X-20000Y25298D02*
Y26187D01*
X-15848Y22248D02*
X-15800Y22200D01*
X-19372Y22248D02*
Y24670D01*
X-12929Y-8029D02*
X-10728D01*
Y-10827D02*
Y-8029D01*
X-13599Y17901D02*
X-11350Y20150D01*
X-16000Y15600D02*
X-13699Y17901D01*
X-13599D01*
X-11350Y20150D02*
Y26445D01*
X-20000Y14687D02*
X-17105Y11792D01*
X-22044Y7726D02*
X-17146D01*
X-17105Y11792D02*
X-15766D01*
X-9748Y17811D01*
X-17146Y7726D02*
X-11072Y13800D01*
X-9748Y17811D02*
X-7000D01*
X-11072Y13800D02*
X-9261D01*
X15784Y-14384D02*
X30116D01*
X34185Y-10315D01*
X14020Y-12620D02*
X15784Y-14384D01*
X34185Y-10315D02*
Y1040D01*
X22000Y-8457D02*
X23012Y-7444D01*
X22000Y-12235D02*
Y-8457D01*
X23012Y-7444D02*
Y-886D01*
X14873Y-151D02*
X22277D01*
X17289Y12189D02*
X24126D01*
X11207Y8029D02*
X13129D01*
X10677Y7500D02*
X11207Y8029D01*
X13129D02*
X17289Y12189D01*
X7000Y24846D02*
X7402D01*
X9128Y22718D02*
Y23120D01*
Y22718D02*
X15752Y16094D01*
X7402Y24846D02*
X9128Y23120D01*
X15752Y16094D02*
X20500D01*
X1659Y26602D02*
Y30659D01*
X-2046Y22897D02*
X1659Y26602D01*
X-2880Y16989D02*
X-2486Y22458D01*
X-2046Y22897D01*
X-4797Y28299D02*
X-4700Y28396D01*
X-7000Y24189D02*
X-6075D01*
X-4797Y25467D01*
Y28299D01*
X-4700Y28396D02*
Y28470D01*
X-6600Y31195D02*
X-4730D01*
X728Y36654D01*
X-13348Y-39530D02*
X-13313Y-39565D01*
X-13348Y-39530D02*
Y-39052D01*
X-13400Y-39000D02*
X-13348Y-39052D01*
X-6636Y-13730D02*
X-4232Y-11327D01*
X5474Y-2500D02*
X12400D01*
X5300Y-2400D02*
X5373D01*
X5474Y-2500D01*
X-11350Y26445D02*
X-6600Y31195D01*
X24800Y12862D02*
Y19327D01*
X53217Y-6421D02*
Y-6403D01*
X18973Y21900D02*
X24913D01*
X16200Y24673D02*
X18973Y21900D01*
X16200Y24673D02*
Y41182D01*
X5126Y34840D02*
X14300Y25666D01*
X10728Y46654D02*
X16200Y41182D01*
X24913Y21900D02*
X53217Y-6403D01*
X18186Y20000D02*
X24126D01*
X24800Y19327D01*
X14300Y23886D02*
X18186Y20000D01*
X14300Y23886D02*
Y25666D01*
X5126Y34840D02*
Y38475D01*
X-25430Y-5813D02*
Y-5745D01*
X-6525Y-4256D02*
Y5139D01*
X1392Y13056D01*
X-25430Y-5745D02*
X-23622Y-3937D01*
X-25528Y-6692D02*
X-25430Y-5813D01*
X5192Y15346D02*
X7000Y17154D01*
X5192Y12864D02*
Y15346D01*
Y12864D02*
X10556Y7500D01*
X24126Y12189D02*
X24800Y12862D01*
X3393Y40374D02*
X5126Y38475D01*
X-10677Y-7500D02*
Y-5808D01*
X-9798Y-4930D01*
X-7199D01*
X2271Y18840D02*
X4872D01*
X-25528Y-7935D02*
Y-6692D01*
Y-7935D02*
X-25430Y-9806D01*
X-23720Y-11516D02*
X-16415D01*
X4872Y18840D02*
X7000Y17154D01*
X-25430Y-9806D02*
X-23720Y-11516D01*
X-303Y45623D02*
X728Y46654D01*
X-16415Y-11516D02*
X-12929Y-8029D01*
X1392Y17962D02*
X2271Y18840D01*
X-303Y45623D02*
X-303Y44380D01*
X-7199Y-4930D02*
X-6525Y-4256D01*
X1392Y13056D02*
Y17962D01*
X-303Y44380D02*
X3393Y40374D01*
X-20000Y25298D02*
X-19372Y24670D01*
X-2880Y15220D02*
Y16989D01*
Y15220D02*
X-2486Y14523D01*
X-2925Y12841D02*
X-2486Y13280D01*
X-4491Y11275D02*
X-2925Y12841D01*
X-2486Y13280D02*
Y14523D01*
X931Y-30915D02*
X1067Y-30780D01*
X-9261Y13800D02*
X-8873Y13411D01*
X-9132Y7500D02*
X-5357Y11275D01*
X-4491D01*
X-8873Y13411D02*
X-5375D01*
X-10677Y7500D02*
X-9132D01*
X-10854D02*
X-10677D01*
X-30000Y16323D02*
Y21487D01*
X-20000Y21087D02*
Y24500D01*
Y14687D02*
Y21087D01*
X-10854Y2500D02*
Y7500D01*
X-30000Y16323D02*
X-27500Y13823D01*
X-30000Y21487D02*
Y24500D01*
Y21487D02*
X-28800Y20287D01*
X-20800D01*
X-20000Y21087D01*
X-24472Y30660D02*
Y32500D01*
Y30660D02*
X-20000Y26187D01*
X-10854Y2500D02*
X-10677D01*
X10677D02*
X12222D01*
X12400Y-2500D02*
X14829Y-4930D01*
Y-9256D02*
Y-4930D01*
X14020Y-10065D02*
X14829Y-9256D01*
X14020Y-12620D02*
Y-10065D01*
X30091Y5134D02*
X34185Y1040D01*
X29500Y5134D02*
X30091D01*
X22277Y-151D02*
X23012Y-886D01*
X-25000Y3146D02*
Y4770D01*
X-22044Y7726D01*
X12222Y2500D02*
X14873Y-151D01*
X27032Y27906D02*
X27226Y28100D01*
X27300D01*
X20500Y27906D02*
X27032D01*
X24461Y29912D02*
X31201Y36652D01*
X22506Y29912D02*
X24461D01*
X20500Y27906D02*
X22506Y29912D01*
X-33528Y31909D02*
X-32506Y30888D01*
X-33528Y31909D02*
Y32500D01*
X-25000Y24500D02*
Y26124D01*
X-29764Y30888D02*
X-25000Y26124D01*
X-32506Y30888D02*
X-29764D01*
D42*
X-34383Y7790D02*
X-33020D01*
X-36100Y9506D02*
X-34383Y7790D01*
X-36100Y9506D02*
Y14500D01*
X-30000Y3146D02*
Y4770D01*
X-33020Y7790D02*
X-30000Y4770D01*
D43*
X27756Y-24783D02*
D03*
D44*
Y-43996D02*
D03*
D45*
X728Y46654D02*
D03*
Y36654D02*
D03*
X10728Y46654D02*
D03*
Y36654D02*
D03*
X20728Y46654D02*
D03*
D46*
Y36654D02*
D03*
D47*
X0Y-63780D02*
D03*
Y63780D02*
D03*
D48*
X-9449Y36651D02*
D03*
X31201Y36652D02*
D03*
D49*
X-9449Y46651D02*
D03*
X31201Y46652D02*
D03*
D50*
X18900Y-46900D02*
D03*
X26800Y-30900D02*
D03*
X-4500Y-31636D02*
D03*
X-4200Y-27364D02*
D03*
X-15800Y22200D02*
D03*
X-10728Y-10827D02*
D03*
X-16000Y15600D02*
D03*
X28800Y-12000D02*
D03*
X22000Y-12235D02*
D03*
X11264Y14686D02*
D03*
X1659Y30659D02*
D03*
X-2223Y26177D02*
D03*
X1238Y23162D02*
D03*
X-4700Y28470D02*
D03*
X-13400Y-39000D02*
D03*
X-4232Y-11327D02*
D03*
X5300Y-2400D02*
D03*
X-36100Y14500D02*
D03*
X-19530Y33600D02*
D03*
X-744Y16104D02*
D03*
X14800Y-22900D02*
D03*
X25305Y-6040D02*
D03*
X-5375Y13411D02*
D03*
X11500Y-20800D02*
D03*
X32800Y-20200D02*
D03*
X-20400Y-21500D02*
D03*
X-22900Y51300D02*
D03*
X-7656Y-60857D02*
D03*
X-5500Y-59313D02*
D03*
X-30100Y-55513D02*
D03*
X-27000Y-47200D02*
D03*
X17000Y-11327D02*
D03*
X8600Y-31000D02*
D03*
X9000Y-48500D02*
D03*
X-16929Y-1673D02*
D03*
X27300Y28100D02*
D03*
X-39862Y24409D02*
D03*
M02*
