G04*
G04 #@! TF.GenerationSoftware,Altium Limited,Altium Designer,24.2.2 (26)*
G04*
G04 Layer_Color=16711935*
%FSLAX25Y25*%
%MOIN*%
G70*
G04*
G04 #@! TF.SameCoordinates,6727E026-D54A-49E6-9AE1-AA62B6963756*
G04*
G04*
G04 #@! TF.FilePolarity,Positive*
G04*
G01*
G75*
%ADD11C,0.00787*%
%ADD69C,0.00394*%
D11*
X-50295Y-17323D02*
X-26673D01*
Y6299D01*
X-50295D02*
X-26673D01*
X-50295Y-17323D02*
Y6299D01*
Y7579D02*
X-26673D01*
Y31201D01*
X-50295D02*
X-26673D01*
X-50295Y7579D02*
Y31201D01*
D69*
X35040Y-15689D02*
G03*
X33268Y-13917I-1772J0D01*
G01*
X22244D02*
G03*
X20473Y-15689I0J-1772D01*
G01*
Y-53090D02*
G03*
X22244Y-54862I1772J0D01*
G01*
X33268D02*
G03*
X35040Y-53090I0J1772D01*
G01*
X36910Y-15295D02*
G03*
X33662Y-12047I-3248J-0D01*
G01*
X21851Y-12047D02*
G03*
X18603Y-15295I0J-3248D01*
G01*
Y-53484D02*
G03*
X21851Y-56732I3248J-0D01*
G01*
X33662Y-56732D02*
G03*
X36910Y-53484I0J3248D01*
G01*
X9780Y-28925D02*
G03*
X9780Y-28925I-1969J0D01*
G01*
X21851Y-56732D02*
Y-56732D01*
X33662D01*
X22245Y-54862D02*
X33268D01*
X21851Y-12047D02*
X33662D01*
X22245Y-13917D02*
X33268D01*
X35040Y-53090D02*
Y-15689D01*
X20473Y-53090D02*
Y-15689D01*
X36910Y-53484D02*
Y-15295D01*
X18603Y-53484D02*
Y-15295D01*
X11354Y-52941D02*
Y-25382D01*
X-16205Y-52941D02*
Y-25382D01*
X11354D01*
X-16205Y-52941D02*
X11354D01*
X-7677Y9646D02*
X7677D01*
Y-9646D02*
Y9646D01*
X-7677Y-9646D02*
X7677D01*
X-7677D02*
Y9646D01*
Y4646D02*
X-2677Y9646D01*
X-4665Y31654D02*
X26122D01*
X-4665D02*
Y51654D01*
X26122D01*
Y31654D02*
Y51654D01*
X-11319Y-18504D02*
Y-12795D01*
X-2658Y-18504D02*
Y-12795D01*
X-11319Y-18504D02*
X-2658D01*
X-11319Y-12795D02*
X-2658D01*
X-19161Y-35268D02*
X-1839D01*
X-19161D02*
Y-23732D01*
X-1839D01*
Y-35268D02*
Y-23732D01*
X-4398Y-35268D02*
X-1839Y-32709D01*
X-15500Y-46307D02*
Y-38315D01*
X-20500Y-46307D02*
X-15500D01*
X-20500D02*
Y-38315D01*
X-15500D01*
X22382Y20531D02*
X30374D01*
Y25531D01*
X22382D02*
X30374D01*
X22382Y20531D02*
Y25531D01*
X18051Y-5866D02*
Y2126D01*
X13051D02*
X18051D01*
X13051Y-5866D02*
Y2126D01*
Y-5866D02*
X18051D01*
X-4500Y17004D02*
Y24996D01*
X-9500Y17004D02*
X-4500D01*
X-9500D02*
Y24996D01*
X-4500D01*
X2795Y-18248D02*
X10787D01*
Y-13248D01*
X2795D02*
X10787D01*
X2795Y-18248D02*
Y-13248D01*
X-23484Y-43563D02*
Y-35571D01*
X-28484D02*
X-23484D01*
X-28484Y-43563D02*
Y-35571D01*
Y-43563D02*
X-23484D01*
X8032Y-42874D02*
Y-34882D01*
X13032D01*
Y-42874D02*
Y-34882D01*
X8032Y-42874D02*
X13032D01*
X-5091Y-48310D02*
X-1350Y-44570D01*
Y-48310D02*
Y-37090D01*
X-7650D02*
X-1350D01*
X-7650Y-48310D02*
Y-37090D01*
Y-48310D02*
X-1350D01*
X-22854Y21500D02*
X-17854Y16500D01*
X-37146Y21500D02*
X-17854D01*
X-37146Y6146D02*
Y21500D01*
Y6146D02*
X-17854D01*
Y21500D01*
X-4402Y32203D02*
Y51104D01*
X-14500D02*
X-4402D01*
X-14500Y32203D02*
Y51104D01*
Y32203D02*
X-4402D01*
X36248Y32203D02*
Y51104D01*
X26150D02*
X36248D01*
X26150Y32203D02*
Y51104D01*
Y32203D02*
X36248D01*
M02*
